<svg width="17" height="21" viewBox="0 0 17 21" fill="none" xmlns="http://www.w3.org/2000/svg">
<path fill-rule="evenodd" clip-rule="evenodd" d="M7.26221 1.74536L15.3683 1.74536C15.5306 1.74536 15.6622 1.87693 15.6622 2.03924L15.6622 15.4704C15.6622 15.5118 15.6286 15.5454 15.5872 15.5454H13.8641C13.8635 15.5454 13.8628 15.5454 13.8622 15.5454L4.78721 15.5454L3.06221 15.5454C2.09325 15.5454 1.30312 16.311 1.26375 17.2703C1.26368 17.2718 1.26221 17.2719 1.26221 17.2704V17.2704L1.26221 7.74536C1.26221 4.43166 3.9485 1.74536 7.26221 1.74536Z" fill="#222222"/>
<path d="M13.8622 15.5454L13.8622 14.5454L13.8622 14.5454L13.8622 15.5454ZM4.78721 15.5454L4.78721 16.5454L4.78721 16.5454L4.78721 15.5454ZM3.06221 15.5454L3.06221 14.5454H3.06221L3.06221 15.5454ZM1.26375 17.2703L2.2629 17.3113L1.26375 17.2703ZM15.3683 1.74536V0.745361L7.26221 0.745361V1.74536V2.74536L15.3683 2.74536V1.74536ZM15.6622 2.03924L16.6622 2.03924C16.6622 1.32465 16.0829 0.745361 15.3683 0.745361V1.74536V2.74536C14.9783 2.74536 14.6622 2.42922 14.6622 2.03924H15.6622ZM15.6622 15.4704H16.6622V2.03924L15.6622 2.03924H14.6622L14.6622 15.4704H15.6622ZM15.5872 15.5454V16.5454C16.1809 16.5454 16.6622 16.0641 16.6622 15.4704H15.6622H14.6622C14.6622 14.9595 15.0763 14.5454 15.5872 14.5454V15.5454ZM13.8641 15.5454V16.5454H15.5872V15.5454V14.5454H13.8641V15.5454ZM13.8641 15.5454V14.5454C13.8642 14.5454 13.8643 14.5454 13.8639 14.5454C13.8637 14.5454 13.863 14.5454 13.8622 14.5454V15.5454V16.5454C13.8621 16.5454 13.862 16.5454 13.8624 16.5454C13.8626 16.5454 13.8633 16.5454 13.8641 16.5454V15.5454ZM13.8622 15.5454L13.8622 14.5454L4.78721 14.5454L4.78721 15.5454L4.78721 16.5454L13.8622 16.5454L13.8622 15.5454ZM4.78721 15.5454L4.78721 14.5454L3.06221 14.5454L3.06221 15.5454L3.06221 16.5454L4.78721 16.5454L4.78721 15.5454ZM3.06221 15.5454L3.06221 14.5454C1.5547 14.5454 0.325866 15.7363 0.264587 17.2292L1.26375 17.2703L2.2629 17.3113C2.28037 16.8856 2.6318 16.5454 3.06221 16.5454L3.06221 15.5454ZM1.26221 7.74536H0.262207L0.262207 17.2704H1.26221H2.26221L2.26221 7.74536H1.26221ZM7.26221 1.74536V0.745361C3.39621 0.745361 0.262207 3.87937 0.262207 7.74536H1.26221H2.26221C2.26221 4.98394 4.50078 2.74536 7.26221 2.74536V1.74536ZM1.26375 17.2703L0.264587 17.2292C0.273986 17.0002 0.447805 16.3278 1.19085 16.2741C1.56244 16.2472 1.87659 16.4261 2.05924 16.667C2.22857 16.8903 2.26221 17.1243 2.26221 17.2704H1.26221H0.262207C0.262207 17.4172 0.296027 17.6518 0.465642 17.8755C0.648567 18.1167 0.963086 18.2958 1.33505 18.2689C2.07885 18.2151 2.25344 17.5418 2.2629 17.3113L1.26375 17.2703Z" fill="#222222"/>
<path d="M15.3771 16.3175L16.2001 16.8855L15.3771 16.3175ZM15.5872 19.1452V20.1452C16.1809 20.1452 16.6622 19.6639 16.6622 19.0702H15.6622H14.6622C14.6622 18.5593 15.0763 18.1452 15.5872 18.1452V19.1452ZM15.5122 19.1452V20.1452H15.5872V19.1452V18.1452H15.5122V19.1452ZM3.06221 19.1452V20.1452L15.5122 20.1452V19.1452V18.1452L3.06221 18.1452L3.06221 19.1452ZM1.26221 17.3452H0.262207C0.262207 18.8916 1.51581 20.1452 3.06221 20.1452V19.1452L3.06221 18.1452C2.62038 18.1452 2.26221 17.787 2.26221 17.3452H1.26221ZM3.06221 15.5452V14.5452C1.51581 14.5452 0.262207 15.7988 0.262207 17.3452H1.26221H2.26221C2.26221 16.9033 2.62038 16.5452 3.06221 16.5452V15.5452ZM15.6435 15.5452V14.5452L3.06221 14.5452V15.5452V16.5452L15.6435 16.5452V15.5452ZM15.6622 15.5639H16.6622C16.6622 15.0013 16.2061 14.5452 15.6435 14.5452V15.5452V16.5452C15.1016 16.5452 14.6622 16.1059 14.6622 15.5639H15.6622ZM15.0622 17.3302H16.0622C16.0622 17.1634 16.1131 17.0116 16.2001 16.8855L15.3771 16.3175L14.5541 15.7495C14.2439 16.1988 14.0622 16.7448 14.0622 17.3302H15.0622ZM15.3922 18.3644L16.2067 17.7843C16.1156 17.6563 16.0622 17.501 16.0622 17.3302H15.0622H14.0622C14.0622 17.9303 14.2532 18.4888 14.5776 18.9444L15.3922 18.3644ZM15.6622 15.5639H14.6622C14.6622 15.5419 14.6676 15.5436 14.6533 15.5783C14.638 15.6156 14.6083 15.6709 14.5541 15.7495L15.3771 16.3175L16.2001 16.8855C16.3912 16.6085 16.6622 16.1469 16.6622 15.5639H15.6622ZM15.6622 19.0702H16.6622C16.6622 18.5037 16.4008 18.0568 16.2067 17.7843L15.3922 18.3644L14.5776 18.9444C14.6243 19.0101 14.6481 19.0549 14.6592 19.0817C14.6693 19.1062 14.6622 19.0995 14.6622 19.0702H15.6622Z" fill="#222222"/>
</svg>
