<svg width="16" height="16" viewBox="0 0 20 20" fill="none" xmlns="http://www.w3.org/2000/svg">
<g clip-path="url(#clip0_863_5070)">
<path d="M12.9997 8.99183C13.808 8.4335 14.3747 7.51683 14.3747 6.66683C14.3747 4.7835 12.9163 3.3335 11.0413 3.3335H5.83301V15.0002H11.6997C13.4413 15.0002 14.7913 13.5835 14.7913 11.8418C14.7913 10.5752 14.0747 9.49183 12.9997 8.99183ZM8.33301 5.41683H10.833C11.5247 5.41683 12.083 5.97516 12.083 6.66683C12.083 7.3585 11.5247 7.91683 10.833 7.91683H8.33301V5.41683ZM11.2497 12.9168H8.33301V10.4168H11.2497C11.9413 10.4168 12.4997 10.9752 12.4997 11.6668C12.4997 12.3585 11.9413 12.9168 11.2497 12.9168Z" fill="black"/>
</g>
<defs>
<clipPath id="clip0_863_5070">
<rect width="16" height="16" fill="white"/>
</clipPath>
</defs>
</svg>
