<svg width="33" height="25" viewBox="0 0 33 25" fill="none" xmlns="http://www.w3.org/2000/svg">
<path d="M21.9769 10.379C24.3914 10.379 26.326 8.08183 26.326 5.23612C26.326 2.3904 24.3914 0.0932617 21.9769 0.0932617C19.5623 0.0932617 17.6132 2.3904 17.6132 5.23612C17.6132 8.08183 19.5623 10.379 21.9769 10.379ZM10.3405 10.379C12.7551 10.379 14.6896 8.08183 14.6896 5.23612C14.6896 2.3904 12.7551 0.0932617 10.3405 0.0932617C7.92596 0.0932617 5.97687 2.3904 5.97687 5.23612C5.97687 8.08183 7.92596 10.379 10.3405 10.379ZM10.3405 13.8075C6.95142 13.8075 0.158691 15.8133 0.158691 19.8075V24.0933H20.5223V19.8075C20.5223 15.8133 13.7296 13.8075 10.3405 13.8075ZM21.9769 13.8075C21.5551 13.8075 21.0751 13.8418 20.566 13.8933C22.2532 15.3333 23.4314 17.2704 23.4314 19.8075V24.0933H32.1587V19.8075C32.1587 15.8133 25.366 13.8075 21.9769 13.8075Z" fill="black"/>
</svg>
