<svg width="24" height="24" viewBox="0 0 24 24" fill="none" xmlns="http://www.w3.org/2000/svg">
<path d="M9.39834 7.08276C11.0282 6.40763 12.8596 6.40763 14.4895 7.08276C16.1194 7.75789 17.4144 9.05285 18.0895 10.6828C18.7646 12.3127 18.7646 14.144 18.0895 15.7739C17.4144 17.4038 16.1194 18.6988 14.4895 19.3739C12.8596 20.0491 11.0282 20.0491 9.39834 19.3739C7.76843 18.6988 6.47347 17.4038 5.79834 15.7739C5.12321 14.144 5.12321 12.3127 5.79834 10.6828C6.47347 9.05285 7.76843 7.7579 9.39834 7.08276Z" stroke="#222222" stroke-linecap="round" stroke-linejoin="round"/>
<path d="M4.74365 20.3747L7.21344 17.9048" stroke="#222222" stroke-linecap="round" stroke-linejoin="round"/>
<path d="M19.144 20.3747L16.6743 17.905" stroke="#222222" stroke-linecap="round" stroke-linejoin="round"/>
<path d="M18.8278 3.96383C17.877 3.57 16.8088 3.57 15.858 3.96383C15.4772 4.12156 15.1277 4.33729 14.8203 4.60035C14.5016 4.87306 14.6605 5.35819 15.0496 5.51491C15.0748 5.52507 15.1 5.53536 15.1252 5.54578C17.1625 6.38969 18.7812 8.00839 19.6252 10.0458C19.7232 10.2826 20.0234 10.366 20.1971 10.1775C20.5031 9.84524 20.7517 9.45901 20.9278 9.03368C21.3217 8.08289 21.3217 7.01461 20.9278 6.06383C20.534 5.11305 19.7786 4.35765 18.8278 3.96383Z" stroke="#222222" stroke-linecap="round" stroke-linejoin="round"/>
<path d="M9.13881 4.56746C9.46499 4.8392 9.30375 5.33145 8.90849 5.4864C8.85925 5.50571 8.81015 5.5255 8.76119 5.54578C6.7238 6.38969 5.1051 8.00839 4.26119 10.0458C4.17822 10.2461 3.92234 10.312 3.77694 10.1512C3.48194 9.82491 3.24181 9.44785 3.07027 9.03372C2.67645 8.08294 2.67645 7.01466 3.07027 6.06387C3.4641 5.11309 4.21949 4.3577 5.17027 3.96388C6.12105 3.57005 7.18934 3.57005 8.14012 3.96388C8.50491 4.11497 8.84093 4.3193 9.13881 4.56746Z" stroke="#222222" stroke-linecap="round" stroke-linejoin="round"/>
<path d="M12.5 10.6313C12.5 10.3552 12.2761 10.1313 12 10.1313C11.7239 10.1313 11.5 10.3552 11.5 10.6313L12.5 10.6313ZM12 10.6313L11.5 10.6313L11.5 13.3689L12 13.3689L12.5 13.3689L12.5 10.6313L12 10.6313Z" fill="#222222"/>
<path d="M14.5784 16.4193C14.7741 16.6141 15.0906 16.6134 15.2855 16.4177C15.4803 16.222 15.4796 15.9054 15.2839 15.7106L14.5784 16.4193ZM14.9312 16.0649L15.2839 15.7106L12.211 12.6511L11.8582 13.0054L11.5054 13.3597L14.5784 16.4193L14.9312 16.0649Z" fill="#222222"/>
</svg>
