<svg width="25" height="17" viewBox="0 0 25 17" fill="none" xmlns="http://www.w3.org/2000/svg">
<path d="M4.98633 12.787C4.98633 10.4806 6.85605 8.61084 9.16248 8.61084H15.7606C18.067 8.61084 19.9367 10.4806 19.9367 12.787V16.4452H4.98633V12.787Z" fill="#222222"/>
<ellipse cx="12.4619" cy="4.19904" rx="3.16598" ry="3.75373" fill="#222222"/>
<ellipse cx="6.36489" cy="5.12333" rx="2.38637" ry="2.82938" fill="#222222"/>
<ellipse cx="2.38637" cy="2.82938" rx="2.38637" ry="2.82938" transform="matrix(-1 0 0 1 20.9453 2.29395)" fill="#222222"/>
<path d="M4.6377 8.61084C2.33148 8.61103 0.46198 10.4804 0.461914 12.7866V16.4448H4.08301V12.7866C4.08307 10.4804 5.95259 8.61105 8.25879 8.61084H4.6377Z" fill="#222222"/>
<path d="M20.2861 8.61084C22.5924 8.61103 24.4618 10.4804 24.4619 12.7866V16.4448H20.8408V12.7866C20.8408 10.4804 18.9712 8.61105 16.665 8.61084H20.2861Z" fill="#222222"/>
</svg>
