<svg width="24" height="24" viewBox="0 0 24 24" fill="none" xmlns="http://www.w3.org/2000/svg">
<path d="M4 17C3.71667 17 3.47933 16.904 3.288 16.712C3.096 16.5207 3 16.2833 3 16V8C3 7.71667 3.096 7.479 3.288 7.287C3.47933 7.09567 3.71667 7 4 7C4.28333 7 4.521 7.09567 4.713 7.287C4.90433 7.479 5 7.71667 5 8V11H9V8C9 7.71667 9.096 7.479 9.288 7.287C9.47933 7.09567 9.71667 7 10 7C10.2833 7 10.521 7.09567 10.713 7.287C10.9043 7.479 11 7.71667 11 8V16C11 16.2833 10.9043 16.5207 10.713 16.712C10.521 16.904 10.2833 17 10 17C9.71667 17 9.47933 16.904 9.288 16.712C9.096 16.5207 9 16.2833 9 16V13H5V16C5 16.2833 4.90433 16.5207 4.713 16.712C4.521 16.904 4.28333 17 4 17ZM14 17C13.7167 17 13.4793 16.904 13.288 16.712C13.096 16.5207 13 16.2833 13 16C13 15.7167 13.096 15.479 13.288 15.287C13.4793 15.0957 13.7167 15 14 15H19V13H16C15.7167 13 15.4793 12.904 15.288 12.712C15.096 12.5207 15 12.2833 15 12C15 11.7167 15.096 11.479 15.288 11.287C15.4793 11.0957 15.7167 11 16 11H19V9H14C13.7167 9 13.4793 8.904 13.288 8.712C13.096 8.52067 13 8.28333 13 8C13 7.71667 13.096 7.479 13.288 7.287C13.4793 7.09567 13.7167 7 14 7H19C19.55 7 20.021 7.19567 20.413 7.587C20.8043 7.979 21 8.45 21 9V15C21 15.55 20.8043 16.021 20.413 16.413C20.021 16.8043 19.55 17 19 17H14Z" fill="black"/>
</svg>
