<svg xml:space="preserve" viewBox="0 0 100 100" y="0" x="0" xmlns="http://www.w3.org/2000/svg" id="Layer_1" version="1.1" preserveAspectRatio="xMidYMid" width="200" height="200" xmlns:xlink="http://www.w3.org/1999/xlink" style="margin-top:0px;margin-right:0px;margin-bottom:0px;margin-left:0px;display:block;shape-rendering:auto;background-position-x:0%;background-position-y:0%;background-size:auto;background-origin:padding-box;background-clip:border-box;background:scroll rgba(0, 0, 0, 0) none  repeat;width:200px;height:200px;;animation:none"><g class="ldl-scale" style="transform-origin:50px 50px;transform:matrix(0.8, 0, 0, 0.8, 0, 0);;animation:none"><g class="ldl-ani"><g class="ldl-layer"><g class="ldl-ani" style="transform-origin:50px 17.5px;transform:matrix(1.03, 0, 0, 1.03, 0, 0);animation-duration:1s;animation-timing-function:linear;animation-delay:-0.5625s;animation-iteration-count:infinite;animation-direction:normal;animation-fill-mode:forwards;animation-play-state:paused;animation-name:animate;animation-timeline:auto;animation-range-start:normal;animation-range-end:normal;transform-box:view-box;;animation:none"><path fill="#d65a62" d="M50 27.5c-2.2 0-4-1.8-4-4v-12c0-2.2 1.8-4 4-4s4 1.8 4 4v12c0 2.2-1.8 4-4 4z" style="stroke-width:1px;fill:rgb(197, 169, 143);;animation:none"></path></g></g>
<g class="ldl-layer"><g class="ldl-ani" style="transform-origin:27px 27px;transform:matrix(1.01568, 0, 0, 1.01568, 0, 0);animation-duration:1s;animation-timing-function:linear;animation-delay:-0.625s;animation-iteration-count:infinite;animation-direction:normal;animation-fill-mode:forwards;animation-play-state:paused;animation-name:animate;animation-timeline:auto;animation-range-start:normal;animation-range-end:normal;transform-box:view-box;;animation:none"><path fill="#ea7c60" d="M34.1 34.1c-1.6 1.6-4.1 1.6-5.7 0l-8.5-8.5c-1.6-1.6-1.6-4.1 0-5.7 1.6-1.6 4.1-1.6 5.7 0l8.5 8.5c1.6 1.6 1.6 4.1 0 5.7z" style="stroke-width:1px;fill:rgb(255, 193, 203);;animation:none"></path></g></g>
<g class="ldl-layer"><g class="ldl-ani" style="transform-origin:17.5px 50px;transform:matrix(0.99625, 0, 0, 0.99625, 0, 0);animation-duration:1s;animation-timing-function:linear;animation-delay:-0.6875s;animation-iteration-count:infinite;animation-direction:normal;animation-fill-mode:forwards;animation-play-state:paused;animation-name:animate;animation-timeline:auto;animation-range-start:normal;animation-range-end:normal;transform-box:view-box;;animation:none"><path fill="#f0af6b" d="M27.5 50c0 2.2-1.8 4-4 4h-12c-2.2 0-4-1.8-4-4s1.8-4 4-4h12c2.2 0 4 1.8 4 4z" style="stroke-width:1px;fill:rgb(187, 218, 217);;animation:none"></path></g></g>
<g class="ldl-layer"><g class="ldl-ani" style="transform-origin:27px 73px;transform:matrix(0.97254, 0, 0, 0.97254, 0, 0);animation-duration:1s;animation-timing-function:linear;animation-delay:-0.75s;animation-iteration-count:infinite;animation-direction:normal;animation-fill-mode:forwards;animation-play-state:paused;animation-name:animate;animation-timeline:auto;animation-range-start:normal;animation-range-end:normal;transform-box:view-box;;animation:none"><path fill="#a8b980" d="M34.1 65.9c1.6 1.6 1.6 4.1 0 5.7l-8.5 8.5c-1.6 1.6-4.1 1.6-5.7 0-1.6-1.6-1.6-4.1 0-5.7l8.5-8.5c1.6-1.6 4.1-1.6 5.7 0z" style="stroke-width:1px;fill:rgb(168, 185, 128);;animation:none"></path></g></g>
<g class="ldl-layer"><g class="ldl-ani" style="transform-origin:50px 82.5px;transform:matrix(0.943634, 0, 0, 0.943634, 0, 0);animation-duration:1s;animation-timing-function:linear;animation-delay:-0.8125s;animation-iteration-count:infinite;animation-direction:normal;animation-fill-mode:forwards;animation-play-state:paused;animation-name:animate;animation-timeline:auto;animation-range-start:normal;animation-range-end:normal;transform-box:view-box;;animation:none"><path fill="#d65a62" d="M50 72.5c2.2 0 4 1.8 4 4v12c0 2.2-1.8 4-4 4s-4-1.8-4-4v-12c0-2.2 1.8-4 4-4z" style="stroke-width:1px;fill:rgb(197, 169, 143);;animation:none"></path></g></g>
<g class="ldl-layer"><g class="ldl-ani" style="transform-origin:73px 73px;transform:matrix(0.921517, 0, 0, 0.921517, 0, 0);animation-duration:1s;animation-timing-function:linear;animation-delay:-0.875s;animation-iteration-count:infinite;animation-direction:normal;animation-fill-mode:forwards;animation-play-state:paused;animation-name:animate;animation-timeline:auto;animation-range-start:normal;animation-range-end:normal;transform-box:view-box;;animation:none"><path fill="#ea7c60" d="M65.9 65.9c1.6-1.6 4.1-1.6 5.7 0l8.5 8.5c1.6 1.6 1.6 4.1 0 5.7-1.6 1.6-4.1 1.6-5.7 0l-8.5-8.5c-1.6-1.6-1.6-4.1 0-5.7z" style="stroke-width:1px;fill:rgb(255, 193, 203);;animation:none"></path></g></g>
<g class="ldl-layer"><g class="ldl-ani" style="transform-origin:82.5px 50px;transform:matrix(0.910362, 0, 0, 0.910362, 0, 0);animation-duration:1s;animation-timing-function:linear;animation-delay:-0.9375s;animation-iteration-count:infinite;animation-direction:normal;animation-fill-mode:forwards;animation-play-state:paused;animation-name:animate;animation-timeline:auto;animation-range-start:normal;animation-range-end:normal;transform-box:view-box;;animation:none"><path fill="#f0af6b" d="M72.5 50c0-2.2 1.8-4 4-4h12c2.2 0 4 1.8 4 4s-1.8 4-4 4h-12c-2.2 0-4-1.8-4-4z" style="stroke-width:1px;fill:rgb(187, 218, 217);;animation:none"></path></g></g>
<g class="ldl-layer"><g class="ldl-ani" style="transform-origin:73px 27px;transform:matrix(0.91, 0, 0, 0.91, 0, 0);animation-duration:1s;animation-timing-function:linear;animation-delay:-1s;animation-iteration-count:infinite;animation-direction:normal;animation-fill-mode:forwards;animation-play-state:paused;animation-name:animate;animation-timeline:auto;animation-range-start:normal;animation-range-end:normal;transform-box:view-box;;animation:none"><path fill="#a8b980" d="M65.9 34.1c-1.6-1.6-1.6-4.1 0-5.7l8.5-8.5c1.6-1.6 4.1-1.6 5.7 0 1.6 1.6 1.6 4.1 0 5.7l-8.5 8.5c-1.6 1.6-4.1 1.6-5.7 0z" style="stroke-width:1px;fill:rgb(168, 185, 128);;animation:none"></path></g></g>
<metadata xmlns:d="https://loading.io/stock/"></metadata></g></g>
<STYLE type="text/css">@keyframes animate { 0.00% {transform: translate(0.00px,0.00px) rotate(0.00deg) scale(0.91, 0.91) skew(0deg, 0.00deg) ;opacity: 1.00;}4.00% {transform: translate(0.00px,0.00px) rotate(0.00deg) scale(0.91, 0.91) ;}8.00% {animation-timing-function: cubic-bezier(0.69,0.60,0.35,0.27);transform: translate(0.00px,0.00px) rotate(0.00deg) scale(0.91, 0.91) ;}14.00% {transform: translate(0.00px,0.00px) rotate(0.00deg) scale(0.93, 0.93) ;}18.00% {transform: translate(0.00px,0.00px) rotate(0.00deg) scale(0.94, 0.94) ;}22.00% {animation-timing-function: cubic-bezier(0.67,0.66,0.34,0.33);transform: translate(0.00px,0.00px) rotate(0.00deg) scale(0.96, 0.96) ;}26.00% {transform: translate(0.00px,0.00px) rotate(0.00deg) scale(0.97, 0.97) ;}30.00% {transform: translate(0.00px,0.00px) rotate(0.00deg) scale(0.99, 0.99) ;}34.00% {animation-timing-function: cubic-bezier(0.65,0.71,0.32,0.38);transform: translate(0.00px,0.00px) rotate(0.00deg) scale(1.01, 1.01) ;}40.00% {animation-timing-function: cubic-bezier(0.64,0.74,0.31,0.41);transform: translate(0.00px,0.00px) rotate(0.00deg) scale(1.02, 1.02) ;}46.00% {animation-timing-function: cubic-bezier(0.60,0.91,0.23,0.63);transform: translate(0.00px,0.00px) rotate(0.00deg) scale(1.03, 1.03) ;}50.00% {transform: translate(0.00px,0.00px) rotate(0.00deg) scale(1.03, 1.03) ;}54.00% {transform: translate(0.00px,0.00px) rotate(0.00deg) scale(1.03, 1.03) ;}58.00% {animation-timing-function: cubic-bezier(0.69,0.60,0.35,0.27);transform: translate(0.00px,0.00px) rotate(0.00deg) scale(1.03, 1.03) ;}64.00% {transform: translate(0.00px,0.00px) rotate(0.00deg) scale(1.01, 1.01) ;}68.00% {transform: translate(0.00px,0.00px) rotate(0.00deg) scale(1.00, 1.00) ;}72.00% {animation-timing-function: cubic-bezier(0.67,0.66,0.34,0.33);transform: translate(0.00px,0.00px) rotate(0.00deg) scale(0.98, 0.98) ;}76.00% {animation-timing-function: cubic-bezier(0.66,0.68,0.33,0.35);transform: translate(0.00px,0.00px) rotate(0.00deg) scale(0.97, 0.97) ;}82.00% {animation-timing-function: cubic-bezier(0.65,0.71,0.32,0.38);transform: translate(0.00px,0.00px) rotate(0.00deg) scale(0.94, 0.94) ;}88.00% {animation-timing-function: cubic-bezier(0.65,0.73,0.31,0.40);transform: translate(0.00px,0.00px) rotate(0.00deg) scale(0.92, 0.92) ;}94.00% {animation-timing-function: cubic-bezier(0.63,0.80,0.28,0.48);transform: translate(0.00px,0.00px) rotate(0.00deg) scale(0.91, 0.91) ;}100.00% {animation-timing-function: cubic-bezier(0.63,0.80,0.28,0.48);transform: translate(0.00px,0.00px) rotate(0.00deg) scale(0.91, 0.91) ;} }</STYLE><!-- [ldio] generated by https://loading.io --></svg>