<svg width="24" height="24" viewBox="0 0 24 24" fill="none" xmlns="http://www.w3.org/2000/svg">
<path fill-rule="evenodd" clip-rule="evenodd" d="M14.871 4.97031C13.055 4.10365 10.9448 4.10365 9.12882 4.97031C7.29475 5.84561 5.95945 7.51284 5.50334 9.49322C5.05809 11.4264 5.49463 13.4606 6.69588 15.0393L7.2921 15.823C7.58074 16.2023 7.90115 16.5564 8.24985 16.8814L11.0595 19.5001H4.7999C4.30285 19.5001 3.8999 19.903 3.8999 20.4001C3.8999 20.8971 4.30285 21.3001 4.7999 21.3001H19.1999C19.697 21.3001 20.0999 20.8971 20.0999 20.4001C20.0999 19.903 19.697 19.5001 19.1999 19.5001H12.9403L15.75 16.8814C16.0987 16.5564 16.4191 16.2023 16.7077 15.823L17.3039 15.0393C18.5052 13.4606 18.9417 11.4264 18.4965 9.49322C18.0404 7.51284 16.7051 5.84561 14.871 4.97031ZM10.7306 7.72171C11.5337 7.3399 12.4661 7.3399 13.2692 7.72171L13.2974 7.7351C14.0942 8.1139 14.6745 8.83573 14.8732 9.69532C15.0735 10.5617 14.8597 11.4776 14.3009 12.1693C13.7465 12.8556 12.9071 13.2599 12.0249 13.2599H11.9749C11.0927 13.2599 10.2534 12.8556 9.69895 12.1693C9.14013 11.4776 8.92628 10.5617 9.1266 9.69532C9.32534 8.83573 9.90563 8.1139 10.7024 7.7351L10.7306 7.72171Z" fill="#222222"/>
</svg>
