<svg width="24" height="25" viewBox="0 0 24 25" fill="none" xmlns="http://www.w3.org/2000/svg">
<path d="M4.8001 7.04541C4.40422 7.04541 4.05311 7.23711 3.83454 7.53274C3.92506 7.56248 4.01138 7.61008 4.08821 7.67593L10.9263 13.5372C11.5442 14.0668 12.456 14.0668 13.0739 13.5372L19.912 7.67593C19.9888 7.61008 20.0752 7.5625 20.1657 7.53276C19.9471 7.23712 19.596 7.04541 19.2001 7.04541H4.8001Z" fill="#222222"/>
<path d="M20.4001 9.2332L14.0501 14.676C12.8705 15.6872 11.1298 15.6872 9.95013 14.676L3.6001 9.23316V16.6454C3.6001 17.3082 4.13736 17.8454 4.8001 17.8454H19.2001C19.8628 17.8454 20.4001 17.3082 20.4001 16.6454V9.2332Z" fill="#222222"/>
</svg>
