<svg width="14" height="19" viewBox="0 0 14 19" fill="none" xmlns="http://www.w3.org/2000/svg">
<path d="M13.0014 17.872L13.6261 17.0912L13.0014 17.872ZM6.37599 13.5712L7.00068 14.3521L6.37599 13.5712ZM7.62538 13.5712L7.00068 14.3521L7.62538 13.5712ZM0.999958 17.872L1.62465 18.6529L0.999958 17.872ZM1.9999 1.0188V0.0187988L12.0015 0.0187988V1.0188V2.0188L1.9999 2.0188V1.0188ZM0.9999 17.872H-0.000100136L-0.000100136 2.0188H0.9999H1.9999L1.9999 17.872L0.9999 17.872ZM6.37599 13.5712L7.00068 14.3521L1.62465 18.6529L0.999958 17.872L0.375263 17.0912L5.75129 12.7903L6.37599 13.5712ZM13.0014 17.872L12.3767 18.6529L7.00068 14.3521L7.62538 13.5712L8.25007 12.7903L13.6261 17.0912L13.0014 17.872ZM13.0015 2.0188H14.0015L14.0015 17.872H13.0015H12.0015L12.0015 2.0188H13.0015ZM13.0014 17.872V16.872C12.4181 16.872 12.0015 17.3513 12.0015 17.872H13.0015H14.0015C14.0015 18.3928 13.5848 18.872 13.0014 18.872V17.872ZM13.0014 17.872L13.6261 17.0912C13.4488 16.9493 13.2285 16.872 13.0014 16.872V17.872V18.872C12.7743 18.872 12.554 18.7947 12.3767 18.6529L13.0014 17.872ZM6.37599 13.5712L5.75129 12.7903C6.48173 12.206 7.51964 12.206 8.25007 12.7903L7.62538 13.5712L7.00068 14.3521L7.00068 14.3521L6.37599 13.5712ZM0.999936 17.872L0.999936 16.872C0.780693 16.872 0.558582 16.9445 0.375263 17.0912L0.999958 17.872L1.62465 18.6529C1.44132 18.7996 1.2192 18.872 0.999936 18.872V17.872ZM0.9999 17.872L1.9999 17.872C1.9999 17.3197 1.5522 16.872 0.999936 16.872L0.999936 17.872V18.872C0.447631 18.872 -0.000100136 18.4243 -0.000100136 17.872H0.9999ZM12.0015 1.0188V0.0187988C13.106 0.0187988 14.0015 0.914228 14.0015 2.0188H13.0015H12.0015L12.0015 2.0188V1.0188ZM1.9999 1.0188V2.0188L1.9999 2.0188H0.9999H-0.000100136C-0.000100136 0.914233 0.895328 0.0187988 1.9999 0.0187988V1.0188Z" fill="#222222"/>
</svg>
