<svg width="24" height="25" viewBox="0 0 24 25" fill="none" xmlns="http://www.w3.org/2000/svg">
<path d="M19.225 12.4894C19.0859 13.1296 18.6657 13.6729 18.0811 13.9686C17.4639 14.2808 16.7349 14.2808 16.1176 13.9686C15.5331 13.6729 15.1129 13.1296 14.9738 12.4894L14.9459 12.3613C14.8045 11.7103 14.955 11.03 15.3579 10.4993L15.4022 10.4409C15.8052 9.91027 16.4331 9.59863 17.0994 9.59863C17.7657 9.59863 18.3936 9.91027 18.7965 10.4409L18.8409 10.4993C19.2438 11.03 19.3943 11.7103 19.2528 12.3613L19.225 12.4894Z" fill="#222222"/>
<path d="M20.3594 18.9451H15.9V18.8231C15.9 17.7478 15.5414 16.7329 14.9186 15.9152C16.4116 15.4227 18.0302 15.4494 19.5097 15.9954C20.4049 16.3257 20.9994 17.1788 20.9994 18.133V18.3051C20.9994 18.6586 20.7128 18.9451 20.3594 18.9451Z" fill="#222222"/>
<path d="M13.44 20.1452H3.96C3.42981 20.1452 3 19.7154 3 19.1852V18.8231C3 17.4521 3.84808 16.224 5.13021 15.7384C7.43035 14.8672 9.96965 14.8672 12.2698 15.7384C13.5519 16.224 14.4 17.4521 14.4 18.8231V19.1852C14.4 19.7154 13.9702 20.1452 13.44 20.1452Z" fill="#222222"/>
<path d="M7.2424 12.6686C8.15624 13.143 9.24376 13.143 10.1576 12.6686C10.9981 12.2323 11.599 11.4424 11.7952 10.516L11.8566 10.226C12.0579 9.27507 11.8422 8.28343 11.2641 7.50202L11.165 7.36809C10.5868 6.58653 9.67221 6.12549 8.7 6.12549C7.72779 6.12549 6.81319 6.58653 6.23496 7.36809L6.13587 7.50202C5.55775 8.28343 5.34208 9.27507 5.54344 10.226L5.60484 10.516C5.80102 11.4424 6.40189 12.2323 7.2424 12.6686Z" fill="#222222"/>
</svg>
